<svg width="25" height="25" viewBox="0 0 25 25" fill="none" xmlns="http://www.w3.org/2000/svg">
<g id="Sparkle">
<path id="Vector" d="M18.6064 12.9998L13.7708 11.2129L11.9895 6.37352C11.884 6.08695 11.6932 5.83963 11.4427 5.66494C11.1923 5.49025 10.8943 5.39658 10.5889 5.39658C10.2835 5.39658 9.98552 5.49025 9.73507 5.66494C9.48461 5.83963 9.29376 6.08695 9.18828 6.37352L7.39578 11.2129L2.5564 12.9941C2.26984 13.0996 2.02252 13.2905 1.84783 13.5409C1.67313 13.7914 1.57947 14.0894 1.57947 14.3948C1.57947 14.7001 1.67313 14.9981 1.84783 15.2486C2.02252 15.4991 2.26984 15.6899 2.5564 15.7954L7.39578 17.5879L9.17703 22.4273C9.28251 22.7138 9.47336 22.9611 9.72382 23.1358C9.97427 23.3105 10.2723 23.4042 10.5777 23.4042C10.883 23.4042 11.181 23.3105 11.4315 23.1358C11.6819 22.9611 11.8728 22.7138 11.9783 22.4273L13.7708 17.5879L18.6102 15.8066C18.8967 15.7012 19.144 15.5103 19.3187 15.2599C19.4934 15.0094 19.5871 14.7114 19.5871 14.406C19.5871 14.1007 19.4934 13.8026 19.3187 13.5522C19.144 13.3017 18.8967 13.1109 18.6102 13.0054L18.6064 12.9998ZM12.927 16.296C12.8252 16.3335 12.7328 16.3927 12.6561 16.4694C12.5793 16.5461 12.5202 16.6386 12.4827 16.7404L10.5833 21.8863L8.68765 16.7441C8.65019 16.6413 8.59067 16.5478 8.51325 16.4704C8.43583 16.393 8.34241 16.3335 8.23953 16.296L3.09734 14.4004L8.23953 12.5048C8.34241 12.4673 8.43583 12.4078 8.51325 12.3304C8.59067 12.2529 8.65019 12.1595 8.68765 12.0566L10.5833 6.91445L12.4789 12.0566C12.5164 12.1584 12.5756 12.2509 12.6523 12.3276C12.729 12.4043 12.8215 12.4635 12.9233 12.501L18.0692 14.4004L12.927 16.296ZM13.5833 4.65039C13.5833 4.45148 13.6623 4.26071 13.8029 4.12006C13.9436 3.97941 14.1344 3.90039 14.3333 3.90039H15.8333V2.40039C15.8333 2.20148 15.9123 2.01071 16.0529 1.87006C16.1936 1.72941 16.3844 1.65039 16.5833 1.65039C16.7822 1.65039 16.973 1.72941 17.1136 1.87006C17.2543 2.01071 17.3333 2.20148 17.3333 2.40039V3.90039H18.8333C19.0322 3.90039 19.223 3.97941 19.3636 4.12006C19.5043 4.26071 19.5833 4.45148 19.5833 4.65039C19.5833 4.8493 19.5043 5.04007 19.3636 5.18072C19.223 5.32137 19.0322 5.40039 18.8333 5.40039H17.3333V6.90039C17.3333 7.0993 17.2543 7.29007 17.1136 7.43072C16.973 7.57137 16.7822 7.65039 16.5833 7.65039C16.3844 7.65039 16.1936 7.57137 16.0529 7.43072C15.9123 7.29007 15.8333 7.0993 15.8333 6.90039V5.40039H14.3333C14.1344 5.40039 13.9436 5.32137 13.8029 5.18072C13.6623 5.04007 13.5833 4.8493 13.5833 4.65039ZM23.3333 9.15039C23.3333 9.3493 23.2543 9.54007 23.1136 9.68072C22.973 9.82137 22.7822 9.90039 22.5833 9.90039H21.8333V10.6504C21.8333 10.8493 21.7543 11.0401 21.6136 11.1807C21.473 11.3214 21.2822 11.4004 21.0833 11.4004C20.8844 11.4004 20.6936 11.3214 20.5529 11.1807C20.4123 11.0401 20.3333 10.8493 20.3333 10.6504V9.90039H19.5833C19.3844 9.90039 19.1936 9.82137 19.0529 9.68072C18.9123 9.54007 18.8333 9.3493 18.8333 9.15039C18.8333 8.95148 18.9123 8.76071 19.0529 8.62006C19.1936 8.47941 19.3844 8.40039 19.5833 8.40039H20.3333V7.65039C20.3333 7.45148 20.4123 7.26071 20.5529 7.12006C20.6936 6.97941 20.8844 6.90039 21.0833 6.90039C21.2822 6.90039 21.473 6.97941 21.6136 7.12006C21.7543 7.26071 21.8333 7.45148 21.8333 7.65039V8.40039H22.5833C22.7822 8.40039 22.973 8.47941 23.1136 8.62006C23.2543 8.76071 23.3333 8.95148 23.3333 9.15039Z" fill="#2D2D2D"/>
</g>
</svg>
